# Blender v2.93.0 OBJ File: 'Lokaciya 1.blend'
# www.blender.org
mtllib Lokaciya 1.mtl
o Down_Cube
v 1.000000 0.000000 -1.021697
v 1.000000 -2.000000 -1.021697
v 1.000000 0.000000 1.000000
v 1.000000 -2.000000 1.000000
v -1.000000 0.000000 -1.021697
v -1.000000 -2.000000 -1.021697
v -1.000000 0.000000 1.000000
v -1.000000 -2.000000 1.000000
vt 0.625000 0.500000
vt 0.875000 0.500000
vt 0.875000 0.750000
vt 0.625000 0.750000
vt 0.375000 0.750000
vt 0.625000 1.000000
vt 0.375000 1.000000
vt 0.375000 0.000000
vt 0.625000 0.000000
vt 0.625000 0.250000
vt 0.375000 0.250000
vt 0.125000 0.500000
vt 0.375000 0.500000
vt 0.125000 0.750000
vn 0.0000 1.0000 0.0000
vn 0.0000 0.0000 1.0000
vn -1.0000 0.0000 0.0000
vn 0.0000 -1.0000 0.0000
vn 1.0000 0.0000 0.0000
vn 0.0000 0.0000 -1.0000
usemtl Material
s off
f 1/1/1 5/2/1 7/3/1 3/4/1
f 4/5/2 3/4/2 7/6/2 8/7/2
f 8/8/3 7/9/3 5/10/3 6/11/3
f 6/12/4 2/13/4 4/5/4 8/14/4
f 2/13/5 1/1/5 3/4/5 4/5/5
f 6/11/6 5/10/6 1/1/6 2/13/6
o Right_wall_Cube.004
v -1.021696 -0.000000 0.900000
v -1.021696 -0.000000 1.100000
v 1.000000 0.000000 0.900000
v 1.000000 0.000000 1.100000
v -1.021697 2.000000 0.900000
v -1.021697 2.000000 1.100000
v 1.000000 2.000000 0.900000
v 1.000000 2.000000 1.100000
vt 0.625000 0.500000
vt 0.875000 0.500000
vt 0.875000 0.750000
vt 0.625000 0.750000
vt 0.375000 0.750000
vt 0.625000 1.000000
vt 0.375000 1.000000
vt 0.375000 0.000000
vt 0.625000 0.000000
vt 0.625000 0.250000
vt 0.375000 0.250000
vt 0.125000 0.500000
vt 0.375000 0.500000
vt 0.125000 0.750000
vn 0.0000 -0.0000 -1.0000
vn 1.0000 0.0000 0.0000
vn 0.0000 1.0000 0.0000
vn 0.0000 0.0000 1.0000
vn 0.0000 -1.0000 0.0000
vn -1.0000 -0.0000 0.0000
usemtl Material.004
s off
f 9/15/7 13/16/7 15/17/7 11/18/7
f 12/19/8 11/18/8 15/20/8 16/21/8
f 16/22/9 15/23/9 13/24/9 14/25/9
f 14/26/10 10/27/10 12/19/10 16/28/10
f 10/27/11 9/15/11 11/18/11 12/19/11
f 14/25/12 13/24/12 9/15/12 10/27/12
o Back_wall_Cube.006
v 1.100000 0.000000 -1.021697
v 0.900000 0.000000 -1.021697
v 1.100000 0.000000 1.000000
v 0.900000 0.000000 1.000000
v 1.100000 2.000000 -1.021697
v 0.900000 2.000000 -1.021697
v 1.100000 2.000000 1.000000
v 0.900000 2.000000 1.000000
v 1.100000 1.444227 0.381596
v 1.100000 1.444227 -0.894110
v 1.100000 1.166410 -0.894110
v 1.100000 1.166410 0.381596
v 0.900000 1.444227 -0.894110
v 0.900000 1.166410 -0.894110
v 0.900000 1.444227 0.381596
v 0.900000 1.166410 0.381596
vt 0.805528 0.515777
vt 0.875000 0.500000
vt 0.875000 0.750000
vt 0.805528 0.673529
vt 0.625000 0.750000
vt 0.625000 0.500000
vt 0.770801 0.515777
vt 0.770801 0.673529
vt 0.375000 0.750000
vt 0.625000 1.000000
vt 0.375000 1.000000
vt 0.375000 0.000000
vt 0.625000 0.000000
vt 0.625000 0.250000
vt 0.375000 0.250000
vt 0.194472 0.515777
vt 0.125000 0.500000
vt 0.375000 0.500000
vt 0.125000 0.750000
vt 0.194472 0.673529
vt 0.229199 0.673529
vt 0.229199 0.515777
vt 0.000000 0.000000
vt 0.000000 0.000000
vt 0.000000 0.000000
vt 0.000000 0.000000
vt 0.000000 0.000000
vt 0.000000 0.000000
vt 0.000000 0.000000
vt 0.000000 0.000000
vn 1.0000 0.0000 0.0000
vn 0.0000 0.0000 1.0000
vn 0.0000 1.0000 0.0000
vn -1.0000 -0.0000 0.0000
vn 0.0000 -1.0000 0.0000
vn 0.0000 0.0000 -1.0000
usemtl Material.006
s off
f 26/29/13 21/30/13 23/31/13 25/32/13
f 25/32/13 23/31/13 19/33/13 17/34/13 21/30/13 26/29/13 27/35/13 28/36/13
f 20/37/14 19/33/14 23/38/14 24/39/14
f 24/40/15 23/41/15 21/42/15 22/43/15
f 29/44/16 22/45/16 18/46/16 20/37/16 24/47/16 31/48/16 32/49/16 30/50/16
f 31/48/16 24/47/16 22/45/16 29/44/16
f 18/46/17 17/34/17 19/33/17 20/37/17
f 22/43/18 21/42/18 17/34/18 18/46/18
f 30/51/14 27/52/14 26/53/14 29/54/14
f 25/55/18 28/56/18 32/57/18 31/58/18
f 29/54/17 26/53/17 25/55/17 31/58/17
f 28/56/15 27/52/15 30/51/15 32/57/15
o Window_Куб
v 1.099458 1.444227 0.381596
v 1.099458 1.166410 0.381596
v 1.099458 1.444227 -0.894110
v 1.099458 1.166410 -0.894110
v 0.900097 1.444227 0.381596
v 0.900097 1.166410 0.381596
v 0.900097 1.444227 -0.894110
v 0.900097 1.166410 -0.894110
v 1.099458 1.444227 0.348908
v 1.099458 1.166410 0.348908
v 0.900097 1.444227 0.348908
v 0.900097 1.166410 0.348908
v 1.099458 1.166410 -0.870183
v 0.900097 1.444227 -0.870183
v 1.099458 1.444227 -0.870183
v 0.900097 1.166410 -0.870183
v 1.099458 1.418732 0.381596
v 1.099458 1.418732 -0.894110
v 0.900097 1.418732 -0.894110
v 0.900097 1.418732 0.381596
v 0.900097 1.418732 0.348908
v 1.099458 1.418732 0.348908
v 0.900097 1.418732 -0.870183
v 1.099458 1.418732 -0.870183
v 1.099458 1.192877 0.381596
v 1.099458 1.192877 -0.894110
v 0.900097 1.192877 -0.894110
v 0.900097 1.192877 0.381596
v 0.900097 1.192877 0.348908
v 1.099458 1.192877 0.348908
v 0.900097 1.192877 -0.870183
v 1.099458 1.192877 -0.870183
v 1.099458 1.444227 0.049869
v 0.900097 1.166410 0.049869
v 1.099458 1.166410 0.049869
v 0.900097 1.444227 0.049869
v 1.099458 1.418732 0.049869
v 0.900097 1.418732 0.049869
v 1.099458 1.192877 0.049869
v 0.900097 1.192877 0.049869
v 1.099458 1.166410 -0.252686
v 0.900097 1.444227 -0.252686
v 1.099458 1.418732 -0.252686
v 1.099458 1.192877 -0.252686
v 1.099458 1.444227 -0.252686
v 0.900097 1.166410 -0.252686
v 0.900097 1.418732 -0.252686
v 0.900097 1.192877 -0.252686
v 1.099458 1.166410 -0.549934
v 0.900097 1.444227 -0.549934
v 1.099458 1.418732 -0.549934
v 1.099458 1.192877 -0.549934
v 1.099458 1.444227 -0.549934
v 0.900097 1.166410 -0.549934
v 0.900097 1.418732 -0.549934
v 0.900097 1.192877 -0.549934
v 1.099458 1.444227 -0.239825
v 0.900097 1.166410 -0.239825
v 0.900097 1.418732 -0.239825
v 0.900097 1.192877 -0.239825
v 1.099458 1.166410 -0.239825
v 0.900097 1.444227 -0.239825
v 1.099458 1.418732 -0.239825
v 1.099458 1.192877 -0.239825
v 1.099458 1.444227 -0.537090
v 0.900097 1.166410 -0.537090
v 0.900097 1.418732 -0.537090
v 0.900097 1.192877 -0.537090
v 1.099458 1.166410 -0.537090
v 0.900097 1.444227 -0.537090
v 1.099458 1.418732 -0.537090
v 1.099458 1.192877 -0.537090
v 1.099458 1.444227 0.038868
v 0.900097 1.166410 0.038868
v 0.900097 1.418732 0.038868
v 0.900097 1.192877 0.038868
v 1.099458 1.166410 0.038868
v 0.900097 1.444227 0.038868
v 1.099458 1.418732 0.038868
v 1.099458 1.192877 0.038868
vt 0.601183 0.245311
vt 0.625000 0.245311
vt 0.625000 0.250000
vt 0.601183 0.250000
vt 0.625000 0.500000
vt 0.601183 0.500000
vt 0.601183 0.743594
vt 0.625000 0.743594
vt 0.625000 0.750000
vt 0.601183 0.750000
vt 0.625000 1.000000
vt 0.601183 1.000000
vt 0.125000 0.743594
vt 0.375000 0.743594
vt 0.375000 0.750000
vt 0.125000 0.750000
vt 0.875000 0.743594
vt 0.875000 0.750000
vt 0.625000 0.684992
vt 0.875000 0.684992
vt 0.125000 0.684992
vt 0.375000 0.684991
vt 0.601183 0.684992
vt 0.601183 0.000000
vt 0.625000 0.000000
vt 0.625000 0.006406
vt 0.601183 0.006406
vt 0.625000 0.504689
vt 0.601183 0.504689
vt 0.125000 0.500000
vt 0.375000 0.500000
vt 0.375000 0.504689
vt 0.125000 0.504689
vt 0.875000 0.500000
vt 0.875000 0.504689
vt 0.601183 0.182552
vt 0.625000 0.182552
vt 0.375000 0.182552
vt 0.397943 0.182552
vt 0.397943 0.245311
vt 0.375000 0.245311
vt 0.397943 0.500000
vt 0.397943 0.504689
vt 0.375000 0.000000
vt 0.397943 0.000000
vt 0.397943 0.006406
vt 0.375000 0.006406
vt 0.397943 0.684992
vt 0.397943 0.743594
vt 0.397943 0.750000
vt 0.397943 1.000000
vt 0.375000 1.000000
vt 0.375000 0.250000
vt 0.397943 0.250000
vt 0.397943 0.682836
vt 0.601183 0.682836
vt 0.375000 0.682836
vt 0.397943 0.065008
vt 0.375000 0.065008
vt 0.625000 0.065008
vt 0.601183 0.065008
vt 0.625000 0.682836
vt 0.125000 0.682836
vt 0.875000 0.682836
vt 0.625000 0.569965
vt 0.875000 0.569965
vt 0.875000 0.625700
vt 0.625000 0.625700
vt 0.125000 0.569965
vt 0.375000 0.569965
vt 0.375000 0.625700
vt 0.125000 0.625700
vt 0.601183 0.569965
vt 0.601183 0.625700
vt 0.397943 0.569965
vt 0.397943 0.625700
vt 0.397943 0.121780
vt 0.601183 0.121780
vt 0.601183 0.124300
vt 0.397943 0.124300
vt 0.375000 0.121780
vt 0.375000 0.124300
vt 0.625000 0.121780
vt 0.625000 0.124300
vt 0.397943 0.567448
vt 0.375000 0.567448
vt 0.625000 0.567448
vt 0.601183 0.567448
vt 0.125000 0.567448
vt 0.875000 0.567448
vt 0.397943 0.180035
vt 0.601183 0.180035
vt 0.375000 0.180035
vt 0.625000 0.180035
vt 0.601183 0.067164
vt 0.625000 0.067164
vt 0.375000 0.067164
vt 0.397943 0.067164
vt 0.875000 0.628220
vt 0.625000 0.628220
vt 0.375000 0.628220
vt 0.125000 0.628220
vt 0.601183 0.628220
vt 0.397943 0.628220
vt 0.000000 0.000000
vt 0.000000 0.000000
vn 1.0000 0.0000 0.0000
vn 0.0000 0.0000 -1.0000
vn -1.0000 0.0000 0.0000
vn 0.0000 0.0000 1.0000
vn 0.0000 1.0000 0.0000
vn 0.0000 -1.0000 0.0000
usemtl None
s off
f 64/59/19 45/60/19 36/61/19 58/62/19
f 58/62/20 36/61/20 40/63/20 59/64/20
f 61/65/21 44/66/21 38/67/21 60/68/21
f 60/68/22 38/67/22 34/69/22 57/70/22
f 41/71/23 43/72/23 37/73/23 33/74/23
f 44/66/24 42/75/24 34/76/24 38/67/24
f 66/77/24 67/78/24 42/75/24 44/66/24
f 65/79/23 68/80/23 43/72/23 41/71/23
f 72/81/21 66/77/21 44/66/21 61/65/21
f 57/82/19 34/83/19 42/84/19 62/85/19
f 59/64/21 40/63/21 48/86/21 63/87/21
f 35/88/23 39/89/23 46/90/23 47/91/23
f 40/63/24 36/92/24 45/93/24 48/86/24
f 84/94/19 81/95/19 45/60/19 64/59/19
f 85/96/19 83/97/19 56/98/19 47/99/19
f 39/89/21 51/100/21 55/101/21 46/90/21
f 33/102/19 49/103/19 54/104/19 41/105/19
f 68/80/21 70/106/21 53/107/21 43/72/21
f 37/73/22 52/108/22 49/109/22 33/110/22
f 43/72/21 53/107/21 52/108/21 37/73/21
f 35/111/20 50/112/20 51/100/20 39/89/20
f 47/99/19 56/98/19 50/112/19 35/111/19
f 51/100/21 59/64/21 63/87/21 55/101/21
f 49/103/19 57/82/19 62/85/19 54/104/19
f 52/108/22 60/68/22 57/70/22 49/109/22
f 53/107/21 61/65/21 60/68/21 52/108/21
f 50/112/20 58/62/20 59/64/20 51/100/20
f 56/98/19 64/59/19 58/62/19 50/112/19
f 107/113/21 108/114/21 72/81/21 70/106/21
f 110/115/21 107/113/21 70/106/21 68/80/21
f 41/105/19 54/104/19 69/116/19 65/117/19
f 62/85/19 42/84/19 67/118/19 71/119/19
f 108/114/21 106/120/21 66/77/21 72/81/21
f 105/121/23 110/115/23 68/80/23 65/79/23
f 106/120/24 109/122/24 67/78/24 66/77/24
f 98/123/24 101/124/24 73/125/24 78/126/24
f 97/127/23 102/128/23 74/129/23 77/130/23
f 100/131/21 98/123/21 78/126/21 80/132/21
f 102/128/21 99/133/21 79/134/21 74/129/21
f 95/135/19 96/136/19 76/137/19 75/138/19
f 89/139/19 95/135/19 75/138/19 77/140/19
f 96/136/19 93/141/19 73/142/19 76/137/19
f 46/90/21 55/101/21 87/143/21 82/144/21
f 63/87/21 48/86/21 86/145/21 88/146/21
f 47/91/23 46/90/23 82/144/23 85/147/23
f 48/86/24 45/93/24 81/148/24 86/145/24
f 103/149/19 104/150/19 84/94/19 83/97/19
f 97/151/19 103/149/19 83/97/19 85/96/19
f 104/150/19 101/152/19 81/95/19 84/94/19
f 112/153/19 109/154/19 93/141/19 96/136/19
f 105/155/19 111/156/19 95/135/19 89/139/19
f 78/126/24 73/125/24 93/157/24 90/158/24
f 77/130/23 74/129/23 94/159/23 89/160/23
f 80/132/21 78/126/21 90/158/21 92/161/21
f 74/129/21 79/134/21 91/162/21 94/159/21
f 79/134/21 80/132/21 92/161/21 91/162/21
f 76/137/19 73/142/19 101/152/19 104/150/19
f 77/140/19 75/138/19 103/149/19 97/151/19
f 87/143/21 88/146/21 100/131/21 99/133/21
f 82/144/21 87/143/21 99/133/21 102/128/21
f 88/146/21 86/145/21 98/123/21 100/131/21
f 85/147/23 82/144/23 102/128/23 97/127/23
f 86/145/24 81/148/24 101/124/24 98/123/24
f 69/116/19 71/119/19 112/153/19 111/156/19
f 65/117/19 69/116/19 111/156/19 105/155/19
f 71/119/19 67/118/19 109/154/19 112/153/19
f 90/158/24 93/157/24 109/122/24 106/120/24
f 89/160/23 94/159/23 110/115/23 105/121/23
f 92/161/21 90/158/21 106/120/21 108/114/21
f 94/159/21 91/162/21 107/113/21 110/115/21
f 53/107/20 54/104/20 62/85/20 61/65/20
f 61/65/23 62/85/23 64/163/23 63/164/23
f 55/101/22 63/164/22 64/59/22 56/98/22
f 54/104/24 53/107/24 55/101/24 56/98/24
f 87/143/20 83/97/20 84/94/20 88/146/20
f 103/149/22 99/133/22 100/131/22 104/150/22
f 79/134/20 75/138/20 76/137/20 80/132/20
f 95/135/22 91/162/22 92/161/22 96/136/22
f 111/156/20 112/153/20 108/114/20 107/113/20
f 70/106/22 72/81/22 71/119/22 69/116/22
